<svg xmlns="http://www.w3.org/2000/svg" xmlns:xlink="http://www.w3.org/1999/xlink" viewBox="0 0 82.3 82.3"><defs><style>.cls-1{isolation:isolate;}.cls-2{mix-blend-mode:color-burn;fill:url(#radial-gradient);}.cls-3,.cls-4,.cls-5{fill-rule:evenodd;}.cls-3{fill:url(#linear-gradient);}.cls-4{mix-blend-mode:screen;fill:url(#linear-gradient-2);}.cls-5{fill:url(#linear-gradient-3);}</style><radialGradient id="radial-gradient" cx="51.25" cy="54.45" r="41.15" gradientTransform="translate(96.66 -4.96) rotate(80.66)" gradientUnits="userSpaceOnUse"><stop offset="0" stop-color="#636982"/><stop offset="0.05" stop-color="#767c91"/><stop offset="0.18" stop-color="#a0a3b3"/><stop offset="0.31" stop-color="#c2c5ce"/><stop offset="0.44" stop-color="#dddee4"/><stop offset="0.58" stop-color="#f0f1f3"/><stop offset="0.72" stop-color="#fbfbfc"/><stop offset="0.87" stop-color="#fff"/></radialGradient><linearGradient id="linear-gradient" x1="21.37" y1="49.52" x2="109.23" y2="49.52" gradientUnits="userSpaceOnUse"><stop offset="0" stop-color="#0d0e19"/><stop offset="0.6" stop-color="#20222a"/><stop offset="0.84" stop-color="#3e4151"/><stop offset="1" stop-color="#4e5266"/></linearGradient><linearGradient id="linear-gradient-2" x1="45.75" y1="49.52" x2="95.11" y2="49.52" xlink:href="#linear-gradient"/><linearGradient id="linear-gradient-3" x1="46.08" y1="41.35" x2="57.39" y2="53.73" gradientUnits="userSpaceOnUse"><stop offset="0" stop-color="#b27f2a"/><stop offset="0.06" stop-color="#b7862e"/><stop offset="0.14" stop-color="#c49939"/><stop offset="0.24" stop-color="#dab84c"/><stop offset="0.33" stop-color="#f4dd62"/><stop offset="0.52" stop-color="#f4e38b"/><stop offset="0.66" stop-color="#f4dd62"/><stop offset="1" stop-color="#b27f2a"/></linearGradient></defs><g class="cls-1"><g id="Layer_1" data-name="Layer 1"><circle class="cls-2" cx="51.25" cy="54.45" r="41.15" transform="translate(-20.89 82.89) rotate(-80.66)"/><path class="cls-3" d="M73.56,49.52a21.71,21.71,0,1,1-21.7-21.71A21.7,21.7,0,0,1,73.56,49.52Z" transform="translate(-10.1 -13.3)"/><path class="cls-4" d="M51.86,27.81V71.22a21.71,21.71,0,0,0,0-43.41Z" transform="translate(-10.1 -13.3)"/><path class="cls-5" d="M54.75,43.12c.56,0,1.13,0,1.7,0h.24v-3c-.31,0-.62-.07-.94-.09-.59,0-1.17-.06-1.75,0a4.27,4.27,0,0,0-2.47.76A3.7,3.7,0,0,0,50,43.26a8.82,8.82,0,0,0-.1,1.27c0,.66,0,1.32,0,2v.25H47.11v3.3h2.81v8.3h3.44V50.08h2.8c.14-1.1.28-2.18.43-3.32H56c-.8,0-2.63,0-2.63,0s0-1.63,0-2.34C53.39,43.45,54,43.15,54.75,43.12Z" transform="translate(-10.1 -13.3)"/></g></g></svg>