<svg width="256" height="256" viewBox="0 0 256 256" fill="none" xmlns="http://www.w3.org/2000/svg">
<g clip-path="url(#clip0_24_14)">
<path d="M128 256C198.692 256 256 198.692 256 128C256 57.3075 198.692 0 128 0C57.3075 0 0 57.3075 0 128C0 198.692 57.3075 256 128 256Z" fill="#13AA52"/>
<path d="M162.215 112.36C154.13 76.6775 135.023 64.945 132.965 60.4625C130.715 57.3 128.435 51.675 128.435 51.675C128.398 51.58 128.338 51.4125 128.268 51.25C128.035 54.4125 127.915 55.6325 124.925 58.8225C120.295 62.4425 96.5401 82.375 94.6076 122.915C92.8051 160.725 121.92 183.255 125.858 186.128L126.305 186.445V186.417C126.33 186.607 127.555 195.418 128.415 204.753H131.5C132.224 198.154 133.309 191.6 134.75 185.12L135 184.958C136.761 183.695 138.441 182.321 140.028 180.845L140.208 180.682C148.578 172.95 163.625 155.065 163.478 126.55C163.446 121.793 163.024 117.047 162.215 112.36ZM128.088 164.78C128.088 164.78 128.088 111.75 129.838 111.76C131.203 111.76 132.97 180.163 132.97 180.163C130.54 179.87 128.088 168.905 128.088 164.78Z" fill="white"/>
</g>
<defs>
<clipPath id="clip0_24_14">
<rect width="256" height="256" fill="white"/>
</clipPath>
</defs>
</svg>
